<svg width="21px" height="24px" viewBox="0 0 21 24" version="1.1" xmlns="http://www.w3.org/2000/svg" xmlns:xlink="http://www.w3.org/1999/xlink">
  <path d="M18.54,0 C19.896,0 21,1.104 21,2.472 L21,24 L18.42,21.72 L16.968,20.376 L15.432,18.948 L16.068,21.168 L2.46,21.168 C1.104,21.168 0,20.064 0,18.696 L0,2.472 C0,1.104 1.104,0 2.46,0 L18.54,0 Z M13.908,15.672 C16.56,15.588 17.58,13.848 17.58,13.848 C17.58,9.984 15.852,6.852 15.852,6.852 C14.124,5.556 12.48,5.592 12.48,5.592 L12.312,5.784 C14.352,6.408 15.3,7.308 15.3,7.308 C14.052,6.624 12.828,6.288 11.688,6.156 C10.824,6.06 9.996,6.084 9.264,6.18 C9.192,6.18 9.132,6.192 9.06,6.204 C8.64,6.24 7.62,6.396 6.336,6.96 C5.892,7.164 5.628,7.308 5.628,7.308 C5.628,7.308 6.624,6.36 8.784,5.736 L8.664,5.592 C8.664,5.592 7.02,5.556 5.292,6.852 C5.292,6.852 3.564,9.984 3.564,13.848 C3.564,13.848 4.572,15.588 7.224,15.672 C7.224,15.672 7.668,15.132 8.028,14.676 C6.504,14.22 5.928,13.26 5.928,13.26 C5.928,13.26 6.048,13.344 6.264,13.464 C6.276,13.476 6.288,13.488 6.312,13.5 C6.348,13.524 6.384,13.536 6.42,13.56 C6.72,13.728 7.02,13.86 7.296,13.968 C7.788,14.16 8.376,14.352 9.06,14.484 C9.96,14.652 11.016,14.712 12.168,14.496 C12.732,14.4 13.308,14.232 13.908,13.98 C14.328,13.824 14.796,13.596 15.288,13.272 C15.288,13.272 14.688,14.256 13.116,14.7 C13.476,15.156 13.908,15.672 13.908,15.672 Z M8.328,10.068 C9.012,10.068 9.564,10.668 9.552,11.4 C9.552,12.132 9.012,12.732 8.328,12.732 C7.656,12.732 7.104,12.132 7.104,11.4 C7.104,10.668 7.644,10.068 8.328,10.068 Z M12.708,10.068 C13.392,10.068 13.932,10.668 13.932,11.4 C13.932,12.132 13.392,12.732 12.708,12.732 C12.036,12.732 11.484,12.132 11.484,11.4 C11.484,10.668 12.024,10.068 12.708,10.068 Z" id="discord" fill="currentColor" fill-rule="nonzero"></path>
</svg>