<svg width="22px" height="22px" viewBox="0 0 22 22" version="1.1" xmlns="http://www.w3.org/2000/svg" xmlns:xlink="http://www.w3.org/1999/xlink">
  <path d="M20.7854167,0 L1.21458333,0 C0.544270833,0 0,0.544270833 0,1.21458333 L0,20.7854167 C0,21.4557292 0.544270833,22 1.21458333,22 L11,22 L11,13.2916667 L8.3703125,13.2916667 L8.3703125,10.0833333 L11,10.0833333 L11,7.71145833 C11,4.86979167 12.9708333,3.32291667 15.5088542,3.32291667 C16.7234375,3.32291667 18.0296875,3.41458333 18.3333333,3.4546875 L18.3333333,6.42239583 L16.3109375,6.42239583 C14.9302083,6.42239583 14.6666667,7.07552083 14.6666667,8.03802083 L14.6666667,10.0833333 L17.9552083,10.0833333 L17.5255208,13.2916667 L14.6666667,13.2916667 L14.6666667,22 L20.7854167,22 C21.4557292,22 22,21.4557292 22,20.7854167 L22,1.21458333 C22,0.544270833 21.4557292,0 20.7854167,0 Z" id="Shape" fill="currentColor" fill-rule="nonzero"></path>
</svg>