<svg viewBox="0 0 26 22" version="1.1" xmlns="http://www.w3.org/2000/svg" xmlns:xlink="http://www.w3.org/1999/xlink">
  <path d="M16.8700951,14.2620036 C15.8981956,14.2620036 15.0815074,13.4809431 15.0815074,12.5179036 C15.0815074,11.554864 15.8981956,10.7480366 16.8700951,10.7480366 C17.8419946,10.7480366 18.6302408,11.554864 18.6302408,12.5179036 C18.6302408,13.4809431 17.8419946,14.2620036 16.8700951,14.2620036 M17.2829086,17.6471359 C16.3776443,18.5433424 14.9815546,18.9789648 13.015002,18.9789648 C13.0109389,18.9789648 13.0060632,18.9781596 13.0011874,18.9781596 C12.9971243,18.9781596 12.9922485,18.9789648 12.9873728,18.9789648 C11.0208203,18.9789648 9.62554316,18.5433424 8.72109153,17.6471359 C8.44317378,17.3717517 8.44317378,16.9264667 8.72109153,16.6518877 C8.99819666,16.3773087 9.44757828,16.3773087 9.72549603,16.6518877 C10.349592,17.2702944 11.4165687,17.5714455 12.9873728,17.5714455 C12.9922485,17.5714455 12.9971243,17.5722507 13.0011874,17.5722507 C13.0060632,17.5722507 13.0109389,17.5714455 13.015002,17.5714455 C14.5858062,17.5714455 15.6535954,17.2702944 16.2785041,16.6518877 C16.5564218,16.3765035 17.0058034,16.3773087 17.2829086,16.6518877 C17.5600137,16.9272719 17.5600137,17.3725569 17.2829086,17.6471359 M7.37375928,12.5179036 C7.37375928,11.5556693 8.18882215,10.7480366 9.15990903,10.7480366 C10.1318085,10.7480366 10.9200548,11.5556693 10.9200548,12.5179036 C10.9200548,13.4809431 10.1318085,14.2620036 9.15990903,14.2620036 C8.18882215,14.2620036 7.37375928,13.4809431 7.37375928,12.5179036 M21.6678331,1.40751933 C22.3260593,1.40751933 22.8615792,1.93815733 22.8615792,2.58957789 C22.8615792,3.24180367 22.3260593,3.77244167 21.6678331,3.77244167 C21.0096068,3.77244167 20.4740869,3.24180367 20.4740869,2.58957789 C20.4740869,1.93815733 21.0096068,1.40751933 21.6678331,1.40751933 M26.0040001,10.6022923 C26.0040001,8.89442705 24.602222,7.50542772 22.8786443,7.50542772 C22.1326546,7.50542772 21.4476117,7.76631803 20.9096539,8.20032999 C19.0040483,7.01344013 16.5856763,6.29840742 13.9934025,6.14702663 L15.3456106,1.91077996 L19.0617447,2.77799867 C19.1592597,4.11868499 20.2904337,5.179961 21.6678331,5.179961 C23.1086172,5.179961 24.2812351,4.01803286 24.2812351,2.58957789 C24.2812351,1.16192814 23.1086172,0 21.6678331,0 C20.6601781,0 19.7841683,0.568483207 19.3477887,1.39866194 L15.0294994,0.391335465 C14.6678813,0.306787679 14.3022001,0.512923233 14.1900578,0.863997848 L12.5111745,6.1220649 C9.71818241,6.18970313 7.09259102,6.90715148 5.04721389,8.16329001 C4.51656977,7.75182412 3.84940464,7.50542772 3.12535576,7.50542772 C1.40177813,7.50542772 0,8.89442705 0,10.6022923 C0,11.6579318 0.536332502,12.5911783 1.35302063,13.1499989 C1.31889038,13.3955901 1.30101263,13.6427917 1.30101263,13.8932142 C1.30101263,16.0278445 2.55326776,18.0135097 4.82699252,19.4838359 C7.00645277,20.8937709 9.89127153,21.6700001 12.9491794,21.6700001 C16.0070873,21.6700001 18.8919061,20.8937709 21.0713663,19.4838359 C23.3450911,18.0135097 24.5973462,16.0278445 24.5973462,13.8932142 C24.5973462,13.6653378 24.5819063,13.4390718 24.5534645,13.2144163 C25.4245985,12.6644531 26.0040001,11.6989979 26.0040001,10.6022923" id="reddit" fill="currentColor"></path>
</svg>