<svg width="24px" height="21px" viewBox="0 0 24 21" version="1.1" xmlns="http://www.w3.org/2000/svg" xmlns:xlink="http://www.w3.org/1999/xlink">
  <path d="M21.1727417,3.25226471 C22.1898222,2.610429 22.9702412,1.59270341 23.3365029,0.380347083 C22.3842226,0.976125132 21.3319246,1.40698706 20.2091918,1.6402468 C19.3132594,0.629949857 18.0327522,0 16.6156013,0 C13.8968128,0 11.693608,2.32516869 11.693608,5.19262912 C11.693608,5.59971936 11.7344603,5.99640948 11.8189822,6.37527084 C7.72812115,6.15835414 4.10072196,4.09318834 1.67071668,0.949381977 C1.24669836,1.71899053 1.00440218,2.610429 1.00440218,3.56129671 C1.00440218,5.36200243 1.87356929,6.95173438 3.19492868,7.88477332 C2.38774432,7.85803017 1.62845571,7.62179897 0.963549921,7.23550897 L0.963549921,7.29939539 C0.963549921,9.81622335 2.65962317,11.915561 4.91494982,12.3909948 C4.50079239,12.5128247 4.06691319,12.5737397 3.6161296,12.5737397 C3.29917239,12.5737397 2.98925867,12.5425394 2.69061454,12.4816244 C3.31607677,14.5438187 5.13470681,16.0473783 7.29001585,16.087493 C5.60380349,17.4811085 3.48089452,18.3101463 1.17485473,18.3101463 C0.77760169,18.3101463 0.384574749,18.2878603 0,18.2388312 C2.17925691,19.7111904 4.76703645,20.5714286 7.54780771,20.5714286 C16.6057404,20.5714286 21.5559077,12.6584264 21.5559077,5.79583583 C21.5559077,5.57000475 21.5530903,5.3456594 21.5432294,5.12428551 C22.5053707,4.39182023 23.3421377,3.47661006 24,2.43511277 C23.1167459,2.84814593 22.167283,3.12746332 21.1727417,3.25226471 Z" id="twitter" fill="currentColor"></path>
</svg>