<?xml version="1.0" encoding="UTF-8"?>
<svg width="62px" height="61px" viewBox="0 0 62 61" version="1.1" xmlns="http://www.w3.org/2000/svg" xmlns:xlink="http://www.w3.org/1999/xlink">
    <!-- Generator: Sketch Beta 52.4 (67378) - http://www.bohemiancoding.com/sketch -->
    <title>bounty-simple</title>
    <desc>Created with Sketch Beta.</desc>
    <defs>
        <linearGradient x1="-0.0164798945%" y1="50%" x2="100.03296%" y2="50%" id="linearGradient-1">
            <stop stop-color="#00DDF0" offset="0%"></stop>
            <stop stop-color="#0076F0" offset="100%"></stop>
        </linearGradient>
        <linearGradient x1="0.0014614774%" y1="49.9992693%" x2="100%" y2="49.9992693%" id="linearGradient-2">
            <stop stop-color="#00DDF0" offset="0%"></stop>
            <stop stop-color="#0076F0" offset="100%"></stop>
        </linearGradient>
    </defs>
    <g id="Page-1" stroke="none" stroke-width="1" fill="none" fill-rule="evenodd">
        <g id="bounty-simple" fill-rule="nonzero">
            <path d="M60.53,23.58 L54.41,23.58 C53.9598906,22.0803477 53.3602109,20.6297258 52.62,19.25 L56.94,14.92 C57.1324127,14.7318595 57.2408755,14.4741087 57.2408755,14.205 C57.2408755,13.9358913 57.1324127,13.6781405 56.94,13.49 L48.35,4.9 C48.1618595,4.70758727 47.9041087,4.59912445 47.635,4.59912445 C47.3658913,4.59912445 47.1081405,4.70758727 46.92,4.9 L42.59,9.23 C41.214948,8.48467528 39.7674565,7.88155385 38.27,7.43 L38.27,1.32 C38.27,0.76771525 37.8222847,0.32 37.27,0.32 L25.11,0.32 C24.5577153,0.32 24.11,0.76771525 24.11,1.32 L24.11,7.43 C22.6100603,7.88356714 21.1594514,8.48659161 19.78,9.23 L15.45,4.9 C15.2618595,4.70758727 15.0041087,4.59912445 14.735,4.59912445 C14.4658913,4.59912445 14.2081405,4.70758727 14.02,4.9 L5.42,13.49 C5.22758727,13.6781405 5.11912445,13.9358913 5.11912445,14.205 C5.11912445,14.4741087 5.22758727,14.7318595 5.42,14.92 L9.75,19.25 C9.02797732,20.6333281 8.44189737,22.0834573 8,23.58 L1.84,23.58 C1.28771525,23.58 0.84,24.0277153 0.84,24.58 L0.84,36.73 C0.84,37.2822847 1.28771525,37.73 1.84,37.73 L8,37.73 C8.45794179,39.2283698 9.06078999,40.6785546 9.8,42.06 L5.42,46.4 C5.22758727,46.5881405 5.11912445,46.8458913 5.11912445,47.115 C5.11912445,47.3841087 5.22758727,47.6418595 5.42,47.83 L14,56.42 C14.1881405,56.6124127 14.4458913,56.7208755 14.715,56.7208755 C14.9841087,56.7208755 15.2418595,56.6124127 15.43,56.42 L19.75,52.09 C21.1274792,52.8375454 22.5785186,53.4407488 24.08,53.89 L24.08,60 C24.08,60.5522847 24.5277153,61 25.08,61 L37.26,61 C37.8122847,61 38.26,60.5522847 38.26,60 L38.26,53.89 C39.758925,53.4425564 41.2068325,52.8392616 42.58,52.09 L46.91,56.42 C47.0981405,56.6124127 47.3558913,56.7208755 47.625,56.7208755 C47.8941087,56.7208755 48.1518595,56.6124127 48.34,56.42 L56.93,47.83 C57.1224127,47.6418595 57.2308755,47.3841087 57.2308755,47.115 C57.2308755,46.8458913 57.1224127,46.5881405 56.93,46.4 L52.61,42.07 C53.3502109,40.6902742 53.9498906,39.2396523 54.4,37.74 L60.52,37.74 C61.0722847,37.74 61.52,37.2922847 61.52,36.74 L61.52,24.59 C61.52,24.0377153 61.0722847,23.59 60.52,23.59 L60.53,23.58 Z M59.53,35.72 L53.66,35.72 C53.1922336,35.7051994 52.776766,36.0168001 52.66,36.47 C52.1699668,38.3123031 51.436861,40.0811731 50.48,41.73 C50.2393544,42.1253139 50.3014022,42.634106 50.63,42.96 L54.78,47.11 L47.63,54.27 L43.48,50.13 C43.152491,49.8179863 42.6563137,49.764678 42.27,50 C40.6152962,50.9448311 38.8434059,51.6677086 37,52.15 C36.5428167,52.2628155 36.2262864,52.6793028 36.24,53.15 L36.24,59 L26.12,59 L26.12,53.12 C26.1348006,52.6522336 25.8231999,52.236766 25.37,52.12 C23.5305282,51.6493635 21.7617248,50.9364617 20.11,50 C19.7147662,49.7672211 19.2118435,49.8331781 18.89,50.16 L14.74,54.31 L7.57,47.15 L11.72,43 C12.051879,42.6765948 12.1180964,42.1675484 11.88,41.77 C10.9223903,40.1215435 10.189242,38.3525708 9.7,36.51 C9.58718447,36.0528167 9.17069718,35.7362864 8.7,35.75 L2.85,35.75 L2.85,25.6 L8.72,25.6 C9.18776644,25.6148006 9.60323396,25.3031999 9.72,24.85 C10.209242,23.0074292 10.9423903,21.2384565 11.9,19.59 C12.1380964,19.1924516 12.071879,18.6834052 11.74,18.36 L7.59,14.22 L14.75,7.05 L18.9,11.2 C19.2218435,11.5268219 19.7247662,11.5927789 20.12,11.36 C21.7680942,10.3992388 23.537044,9.66273685 25.38,9.17 C25.8371833,9.05718447 26.1537136,8.64069718 26.14,8.17 L26.14,2.33 L36.24,2.33 L36.24,8.2 C36.2262864,8.67069718 36.5428167,9.08718447 37,9.2 C38.8425708,9.68924196 40.6115435,10.4223903 42.26,11.38 C42.6552338,11.6127789 43.1581565,11.5468219 43.48,11.22 L47.63,7.07 L54.79,14.23 L50.64,18.38 C50.3131781,18.7018435 50.2472211,19.2047662 50.48,19.6 C51.4376097,21.2484565 52.170758,23.0174292 52.66,24.86 C52.7728155,25.3171833 53.1893028,25.6337136 53.66,25.62 L59.53,25.62 L59.53,35.72 Z" id="Shape" fill="url(#linearGradient-1)"></path>
            <path d="M31.18,14.47 C24.6317563,14.47 18.7282948,18.4145669 16.2223904,24.4643552 C13.716486,30.5141436 15.1016337,37.4777512 19.7319412,42.1080588 C24.3622488,46.7383663 31.3258564,48.123514 37.3756448,45.6176096 C43.4254331,43.1117052 47.37,37.2082437 47.37,30.66 C47.37,21.7185099 40.1214901,14.47 31.18,14.47 Z M31.18,44.83 C23.3541251,44.83 17.01,38.4858749 17.01,30.66 C17.01,22.8341251 23.3541251,16.49 31.18,16.49 C39.0058749,16.49 45.35,22.8341251 45.35,30.66 C45.35,38.4858749 39.0058749,44.83 31.18,44.83 Z" id="Shape" fill="url(#linearGradient-2)"></path>
            <path d="M31.18,19.53 C26.6783352,19.53 22.6199333,22.2417374 20.8972208,26.4007334 C19.1745083,30.5597294 20.1267438,35.3469408 23.3099015,38.5300985 C26.4930592,41.7132562 31.2802706,42.6654917 35.4392666,40.9427792 C39.5982626,39.2200667 42.31,35.1616648 42.31,30.66 C42.31,24.5130707 37.3269293,19.53 31.18,19.53 Z M31.18,39.77 C26.1486859,39.77 22.07,35.6913141 22.07,30.66 C22.07,25.6286859 26.1486859,21.55 31.18,21.55 C36.2113141,21.55 40.29,25.6286859 40.29,30.66 C40.2926574,33.0769359 39.33371,35.3956444 37.6246772,37.1046772 C35.9156444,38.81371 33.5969359,39.7726574 31.18,39.77 Z" id="Shape" fill="url(#linearGradient-2)"></path>
        </g>
    </g>
</svg>