<?xml version="1.0" encoding="UTF-8"?><!DOCTYPE svg PUBLIC "-//W3C//DTD SVG 1.1//EN" "http://www.w3.org/Graphics/SVG/1.1/DTD/svg11.dtd"><svg xmlns="http://www.w3.org/2000/svg"><symbol id="chevron-right" viewBox="0 0 405.457 405.457"><path d="M64.147 331.322c.078 4.985 2.163 9.911 5.688 13.438l55 55c3.599 3.601 8.659 5.697 13.75 5.697 5.091 0 10.151-2.096 13.75-5.697l183.281-183.282c3.601-3.599 5.697-8.659 5.697-13.75s-2.096-10.151-5.697-13.75L152.335 5.697C148.736 2.096 143.676 0 138.585 0c-5.091 0-10.151 2.096-13.75 5.697l-55 55c-3.591 3.598-5.681 8.651-5.681 13.734s2.09 10.136 5.681 13.734l114.562 114.563L69.835 317.291c-3.664 3.667-5.765 8.848-5.688 14.031z"/></symbol><symbol id="discord"><path d="M18.54 0A2.466 2.466 0 0 1 21 2.472V24l-2.58-2.28-1.452-1.344-1.536-1.428.636 2.22H2.46A2.466 2.466 0 0 1 0 18.696V2.472A2.466 2.466 0 0 1 2.46 0h16.08zm-4.632 15.672c2.652-.084 3.672-1.824 3.672-1.824 0-3.864-1.728-6.996-1.728-6.996-1.728-1.296-3.372-1.26-3.372-1.26l-.168.192c2.04.624 2.988 1.524 2.988 1.524A9.782 9.782 0 0 0 9.264 6.18c-.072 0-.132.012-.204.024-.42.036-1.44.192-2.724.756-.444.204-.708.348-.708.348s.996-.948 3.156-1.572l-.12-.144s-1.644-.036-3.372 1.26c0 0-1.728 3.132-1.728 6.996 0 0 1.008 1.74 3.66 1.824 0 0 .444-.54.804-.996-1.524-.456-2.1-1.416-2.1-1.416s.12.084.336.204a.166.166 0 0 0 .048.036c.036.024.072.036.108.06.3.168.6.3.876.408.492.192 1.08.384 1.764.516.9.168 1.956.228 3.108.012a7.898 7.898 0 0 0 1.74-.516c.42-.156.888-.384 1.38-.708 0 0-.6.984-2.172 1.428.36.456.792.972.792.972zm-5.58-5.604c.684 0 1.236.6 1.224 1.332 0 .732-.54 1.332-1.224 1.332-.672 0-1.224-.6-1.224-1.332 0-.732.54-1.332 1.224-1.332zm4.38 0c.684 0 1.224.6 1.224 1.332 0 .732-.54 1.332-1.224 1.332-.672 0-1.224-.6-1.224-1.332 0-.732.54-1.332 1.224-1.332z" fill="currentColor"/></symbol><symbol id="external-link" viewBox="0 0 576 512"><path fill="currentColor" d="M576 24v127.984c0 21.461-25.96 31.98-40.971 16.971l-35.707-35.709-243.523 243.523c-9.373 9.373-24.568 9.373-33.941 0l-22.627-22.627c-9.373-9.373-9.373-24.569 0-33.941L442.756 76.676l-35.703-35.705C391.982 25.9 402.656 0 424.024 0H552c13.255 0 24 10.745 24 24zM407.029 270.794l-16 16A23.999 23.999 0 0 0 384 303.765V448H64V128h264a24.003 24.003 0 0 0 16.97-7.029l16-16C376.089 89.851 365.381 64 344 64H48C21.49 64 0 85.49 0 112v352c0 26.51 21.49 48 48 48h352c26.51 0 48-21.49 48-48V287.764c0-21.382-25.852-32.09-40.971-16.97z"/></symbol><symbol id="facebook"><path d="M20.785 0H1.215C.545 0 0 .544 0 1.215v19.57C0 21.455.544 22 1.215 22H11v-8.708H8.37v-3.209H11V7.711c0-2.841 1.97-4.388 4.509-4.388 1.214 0 2.52.092 2.824.132v2.967h-2.022c-1.38 0-1.644.654-1.644 1.616v2.045h3.288l-.43 3.209h-2.858V22h6.118c.67 0 1.215-.544 1.215-1.215V1.215C22 .545 21.456 0 20.785 0z" fill="currentColor"/></symbol><symbol id="keybase" viewBox="0 0 412 512"><path fill="currentColor" d="M177.2 430.9c0 9.8-8 17.8-17.8 17.8s-17.8-8-17.8-17.8 8-17.8 17.8-17.8c9.8-.1 17.8 7.9 17.8 17.8zM270 413c-9.8 0-17.8 8-17.8 17.8s8 17.8 17.8 17.8 17.8-8 17.8-17.8-8-17.8-17.8-17.8zm142.3-36c0 38.9-7.6 73.9-22.2 103h-27.3c23.5-38.7 30.5-94.8 22.4-134.3-16.1 29.5-52.1 38.6-85.9 28.8-127.8-37.5-192.5 19.7-234.6 50.3l18.9-59.3-39.9 42.3c4.8 26.7 15.7 51.3 31.2 72.3H46.1c-9.7-15.8-17.2-33-22.2-51.3L.1 454c0-74.9-5.5-147.6 61.5-215.2 20.2-20.4 43.7-36.2 69.1-46.7-6.8-13.5-9.5-29.2-7.8-46l-19.9-1.2c-17.9-1.1-31.6-16.5-30.6-34.4v-.1L74 84.2c1.1-17.1 15.4-30.6 32.5-30.6 1.3 0-.3-.1 28.2 1.7 13.9.8 21.5 9.8 22.8 11.4 7.1-10.4 14.5-20.5 24.6-34.5l20.6 12.1c-13.6 29-9.1 36.2-9 36.3 3.9 0 13.9-.5 32.4 5.7C246 92.9 262 107 271 126c.4.9 15.5 29 1.2 62.6 19 6.1 51.3 19.9 82.4 51.8 36.6 37.6 57.7 87.4 57.7 136.6zM128 122.3c3.2-10 7.7-19.7 13.1-29.4.1-2 2.2-13.1-7.8-13.8-28.5-1.8-26.3-1.6-26.7-1.6-4.6 0-8.3 3.5-8.6 8.1l-1.6 26.2c-.3 4.7 3.4 8.8 8.1 9.1l23.5 1.4zm25.8 61.8c5.6 9.4 14.1 16.1 22.3 20 0-21.2 28.5-41.9 52.8-17.5l8.4 10.3c20.8-18.8 19.4-45.3 12.1-60.9-13.8-29.1-46.9-32-54.3-31.7-10.3.4-19.7-5.4-23.7-15.3-13.7 21.2-37.2 62.5-17.6 95.1zm82.9 68.4L217 268.6c-1.9 1.6-2.2 4.4-.6 6.3l8.9 10.9c1 1.2 3.8 2.7 6.3.6l19.6-16 5.5 6.8c4.9 6 13.8-1.4 9-7.3-63.6-78.3-41.5-51.1-55.3-68.1-4.7-6-13.9 1.4-9 7.3 1.9 2.3 18.4 22.6 19.8 24.3l-9.6 7.9c-4.6 3.8 2.6 13.3 7.4 9.4l9.7-8 8 9.8zm118.4 25.7c-16.9-23.7-42.6-46.7-73.4-60.4-7.9-3.5-15-6.1-22.9-8.6-2 2.2-4.1 4.3-6.4 6.2l31.9 39.2c10.4 12.7 8.5 31.5-4.2 41.9-1.3 1.1-13.1 10.7-29 4.9-2.9 2.3-10.1 9.9-22.2 9.9-8.6 0-16.6-3.8-22.1-10.5l-8.9-10.9c-6.3-7.8-7.9-17.9-5-26.8-8.2-9.9-8.3-21.3-4.6-30-7.2-1.3-26.7-6.2-42.7-21.4-55.8 20.7-88 64.4-101.3 91.2-14.9 30.2-18.8 60.9-19.9 90.2 8.2-8.7-3.9 4.1 114-120.9l-29.9 93.6c57.8-31.1 124-36 197.4-14.4 23.6 6.9 45.1 1.6 56-13.9 11.1-15.6 8.5-37.7-6.8-59.3zM110.6 107.3l15.6 1 1-15.6-15.6-1-1 15.6z"/></symbol><symbol id="quote"><path d="M0 20v20h20V20H10s0-10 10-10V0S0 0 0 20zm50-10V0S30 0 30 20v20h20V20H40s0-10 10-10z"/></symbol><symbol id="reddit" viewBox="0 0 26 22"><path d="M16.87 14.262c-.972 0-1.788-.781-1.788-1.744s.816-1.77 1.788-1.77c.972 0 1.76.807 1.76 1.77s-.788 1.744-1.76 1.744m.413 3.385c-.905.896-2.301 1.332-4.268 1.332h-.028c-1.966 0-3.361-.436-4.266-1.332a.698.698 0 0 1 0-.995.715.715 0 0 1 1.004 0c.625.618 1.692.92 3.262.92h.028c1.57 0 2.639-.302 3.264-.92a.715.715 0 0 1 1.004 0 .7.7 0 0 1 0 .995m-9.91-5.13c0-.961.816-1.769 1.787-1.769.972 0 1.76.808 1.76 1.77 0 .963-.788 1.744-1.76 1.744-.971 0-1.786-.781-1.786-1.744m14.294-11.11c.658 0 1.194.53 1.194 1.182a1.19 1.19 0 0 1-1.194 1.182 1.19 1.19 0 0 1-1.194-1.182 1.19 1.19 0 0 1 1.194-1.182m4.336 9.194c0-1.708-1.402-3.097-3.125-3.097-.746 0-1.431.261-1.97.695-1.905-1.187-4.323-1.902-6.916-2.053l1.353-4.236 3.716.867a2.607 2.607 0 0 0 2.606 2.402c1.44 0 2.613-1.162 2.613-2.59S23.11 0 21.668 0a2.62 2.62 0 0 0-2.32 1.399L15.029.39a.71.71 0 0 0-.839.473l-1.679 5.258c-2.793.068-5.418.785-7.464 2.041a3.127 3.127 0 0 0-1.922-.658C1.402 7.505 0 8.895 0 10.602c0 1.056.536 1.99 1.353 2.548a5.388 5.388 0 0 0-.052.743c0 2.135 1.252 4.12 3.526 5.59 2.18 1.41 5.064 2.187 8.122 2.187s5.943-.776 8.122-2.186c2.274-1.47 3.526-3.456 3.526-5.59a5.4 5.4 0 0 0-.044-.68 3.09 3.09 0 0 0 1.451-2.612" fill="currentColor"/></symbol><symbol id="scroll-arrow"><path d="M16 32C7.163 32 0 24.837 0 16S7.163 0 16 0s16 7.163 16 16-7.163 16-16 16zm0-2c7.732 0 14-6.268 14-14S23.732 2 16 2 2 8.268 2 16s6.268 14 14 14zm-1-11V9h2v10l5-5 1 2-7 7-7-7 1-2 5 5z"/></symbol><symbol id="twitter"><path d="M21.173 3.252A5.154 5.154 0 0 0 23.337.38a9.549 9.549 0 0 1-3.128 1.26C19.313.63 18.033 0 16.616 0c-2.72 0-4.922 2.325-4.922 5.193 0 .407.04.803.125 1.182C7.729 6.158 4.101 4.093 1.671.95a5.399 5.399 0 0 0-.667 2.612c0 1.801.87 3.39 2.19 4.324a4.748 4.748 0 0 1-2.23-.65V7.3c0 2.517 1.696 4.617 3.95 5.092a4.583 4.583 0 0 1-1.298.183 4.63 4.63 0 0 1-.925-.092c.625 2.062 2.444 3.565 4.599 3.605-1.686 1.394-3.81 2.223-6.115 2.223A9.3 9.3 0 0 1 0 18.24c2.18 1.472 4.767 2.332 7.548 2.332 9.058 0 14.008-7.913 14.008-14.775 0-.226-.003-.45-.013-.672A10.293 10.293 0 0 0 24 2.435a9.437 9.437 0 0 1-2.827.817z" fill="currentColor"/></symbol><symbol id="video" viewBox="0 0 24 24"><path d="M9 7l8 5-8 5V7zm3 17C5.373 24 0 18.627 0 12S5.373 0 12 0s12 5.373 12 12-5.373 12-12 12zm0-2c5.523 0 10-4.477 10-10S17.523 2 12 2 2 6.477 2 12s4.477 10 10 10z"/></symbol></svg>