<svg height="32" viewBox="0 0 32 32" width="32" xmlns="http://www.w3.org/2000/svg"><g fill="#0f5aef" fill-rule="evenodd"><g fill-rule="nonzero"><path d="m9.114 14.733A7.002 7.002.0 0 1 16 9h14.322c-2.62-5.45-7.98-9-13.863-9-5.202.0-9.869 2.255-12.919 6.092l5.574 8.64z"></path><path d="m16 23a6.98 6.98.0 0 1-4.836-1.938c-.784-.958-1.255-1.592-1.412-1.904l-7.434-11.327c-1.506 2.545-2.318 5.499-2.318 8.628.0 7.718 6.075 14.393 13.921 15.408l4.499-9.297c-.76.28-1.576.43-2.42.43z"></path><path d="m31.204 11c.525 1.598.796 3.28.796 5 0 8.814-7.126 15.963-15.93 16l6.528-13.656A6.99 6.99.0 0 0 23 16c0-1.959-.804-3.73-2.101-5z"></path></g><circle cx="16" cy="16" r="5"></circle></g></svg>