<svg xmlns="http://www.w3.org/2000/svg" width="28" height="32" viewBox="0 0 28 32"><path fill="#001e58" opacity=".5" fill-rule="evenodd" d="M22.945 10H5.055A8.998 8.998.0 0 1 9.09 3.455L7.7 1.6A1 1 0 1 1 9.3.4l1.5 2c.036.048.067.099.093.15A8.982 8.982.0 0 1 14 2c1.092.0 2.138.194 3.107.55.026-.051.057-.102.093-.15l1.5-2a1 1 0 0 1 1.6 1.2l-1.391 1.855A8.998 8.998.0 0 1 22.945 10zM23 11v13a2 2 0 0 1-2 2h-2v4a2 2 0 1 1-4 0v-4h-2v4a2 2 0 1 1-4 0v-4H7a2 2 0 0 1-2-2V11h18zm3 0a2 2 0 0 1 2 2v8a2 2 0 1 1-4 0v-8a2 2 0 0 1 2-2zM2 11a2 2 0 0 1 2 2v8a2 2 0 1 1-4 0v-8a2 2 0 0 1 2-2zm8-3.5a1 1 0 1 0 0-2 1 1 0 0 0 0 2zm8 0a1 1 0 1 0 0-2 1 1 0 0 0 0 2z"></path></svg>