<svg xmlns="http://www.w3.org/2000/svg" width="26" height="32" viewBox="0 0 26 32"><path fill="#001e58" opacity=".5" fill-rule="evenodd" d="M18.858 7.737c.907.0 4.188.082 6.333 3.177-.185.145-3.445 1.98-3.445 6.087.0 4.745 4.147 6.437 4.27 6.478-.02.103-.66 2.29-2.186 4.54-1.362 1.96-2.806 3.94-4.972 3.94-2.187.0-2.745-1.28-5.241-1.28-2.455.0-3.322 1.321-5.302 1.321-2.002.0-3.384-1.836-4.973-4.064C1.485 25.295.0 21.21.0 17.33c0-6.21 4.044-9.512 8.026-9.512 2.104.0 3.858 1.383 5.199 1.383 1.259.0 3.219-1.465 5.633-1.465zm-1.135-2.62c-1.073 1.3-2.889 2.27-4.333 2.27-.165.0-.33-.021-.433-.042a2.832 2.832.0 0 1-.062-.578c0-1.65.846-3.3 1.754-4.332C15.804 1.073 17.743.062 19.353.0c.04.186.062.413.062.64.0 1.65-.702 3.28-1.692 4.477z"></path></svg>