<svg height="32" viewBox="0 0 26 32" width="26" xmlns="http://www.w3.org/2000/svg"><path d="m25.055 25.245c.677.765.972 1.336.943 1.846s-.4.862-.857 1.142c-.916.561-2.296.986-3.127 2.012l-.161-.136.16.137c-.872 1.055-1.951 1.664-2.966 1.745-1.014.081-1.965-.395-2.479-1.44a1.853 1.853.0 0 1-.153-.418c-1.32.075-2.468-.333-3.387-.257-1.354.075-2.2.407-2.97.411-.299.666-.878 1.098-1.593 1.264-.985.229-2.22-.001-3.438-.649l.097-.188-.098.188c-1.138-.613-2.581-.558-3.648-.784-.533-.113-1.004-.313-1.234-.768-.229-.453-.187-1.078.138-1.982.102-.322.025-.797-.05-1.299a5.015 5.015.0 0 1-.073-.739c0-.267.042-.531.173-.779.273-.534.724-.755 1.135-.905s.785-.25 1.047-.517c.28-.301.533-.75.873-1.12.046-.05.094-.098.144-.143-.16-1.078.014-2.216.38-3.332.774-2.367 2.41-4.64 3.57-6.044.99-1.429.917-2.528 1.019-3.99.083-1.998-1.028-8.02 4.528-8.474.22-.018.43-.026.633-.026 4.972.007 4.692 5.335 4.661 8.207-.02 1.883 1.004 3.157 2.05 4.5.935 1.123 2.16 2.766 2.86 4.651.572 1.536.794 3.236.228 4.943a1.6 1.6.0 0 1 .503.308c.407.353.534.897.648 1.401.114.505.22.979.444 1.235zm-1.056 1.718c.013-.23-.13-.59-.574-1.125-.231-.282-.293-.677-.37-1.04-.077-.362-.166-.686-.354-.86-.243-.23-.48-.247-.764-.24l-.189.008c-.323.403-1.088.896-1.619.745-.485-.133-.76-.746-.793-1.346a1.295 1.295.0 0 0-.042.023c-.3.178-.47.494-.577.962-.108.468-.144 1.074-.176 1.769-.03.541-.26 1.208-.419 1.856-.159.65-.238 1.264-.047 1.657.305.663.822.933 1.42.881.6-.051 1.28-.446 1.838-1.166.643-.843 1.649-1.166 2.216-1.537.284-.186.438-.357.45-.587zm-15.544 1.583c.04-.412-.271-.95-.674-1.485-.402-.536-.877-1.062-1.103-1.54l-.845-1.567c-.293-.404-.597-.652-.946-.706a1 1 0 0 0-.155-.012c-.263.002-.437.127-.611.316-.207.224-.383.54-.62.794-.254.26-.576.337-.847.436s-.49.203-.64.497c-.116.22-.09.535-.039.881.053.347.132.716.023 1.059-.217.603-.215.957-.113 1.16.102.202.325.312.667.384.684.145 1.749.097 2.645.58.81.43 1.62.568 2.218.43.598-.14.987-.522 1.04-1.227zm6.714-19.796c-.076-.152-.232-.297-.497-.407-.553-.24-.792-.258-1.1-.461-.5-.328-.914-.443-1.258-.441-.18.0-.341.033-.485.084-.42.146-.698.452-.872.62-.035.034-.079.064-.186.143-.107.08-.269.2-.5.378-.207.157-.274.362-.202.601.07.24.298.517.714.756.26.155.436.363.638.528.102.083.208.157.336.212.128.056.278.094.465.105.44.026.764-.108 1.05-.275.286-.166.528-.369.806-.46.572-.182.978-.547 1.106-.893a.596.596.0 0 0-.015-.49zm7.629 13.425c.241-.798.023-1.91-1.298-2.676-.5-.29-1.795-.506-2-.5-.324-1.819-1.934-2.623-2.31-3.333-.71-1.339-.811-4.082-1.285-5.982-.276.4-.76.743-1.372.937-.289.096-.593.341-.974.563-.351.204-.772.383-1.312.383-.048.0-.098-.001-.148-.004a1.9 1.9.0 0 1-1.148-.454c-.277-.226-.491-.476-.777-.646-.097-.057-1.357 5.31-2.445 6.894-.877 1.283-1.193 2.351-1.229 3.643.0.352.0 1.009.58 1.409 1.13.704 1.898 1.409 2.352 2.033.454.625.596 1.172.455 1.56a.774.774.0 0 1-.418.439 1.443 1.443.0 0 1-.606.115c.121.155.41.444 1.024.944.613.5 6.613 2 7.318-1.97.047-.95.096-1.797.268-2.496.172-.701.48-1.272 1.046-1.587.09-.05.181-.09.271-.122.007-.06.015-.118.025-.175.162-1.093 1.122-1.146 2.327-.608 1.161.535 1.597 1.001 1.421 1.634.077-.002.155-.003.235.0zM15.703 7.48a2.444 2.444.0 0 0 .2-1.052 2.421 2.421.0 0 0-.22-.992 1.783 1.783.0 0 0-.578-.742 1.24 1.24.0 0 0-.77-.267h-.014c-.288.003-.532.09-.78.281a1.813 1.813.0 0 0-.564.754 2.405 2.405.0 0 0-.199 1.024v.029c.002.106.01.207.023.305.223.054.546.147.798.275a1.665 1.665.0 0 1-.022-.32l.001-.023c.007-.208.042-.382.114-.558a.994.994.0 0 1 .274-.402.51.51.0 0 1 .36-.137c.131.004.24.054.35.162a1 1 0 0 1 .245.421c.056.173.082.342.078.54.0.01-.003.017-.003.025-.006.206-.041.38-.113.556-.048.118-.175.211-.24.29.09.032.176.061.287.104a9.186 9.186.0 0 1 .49.206c.111-.136.203-.293.283-.48zm-4.156-.523c.033-.012.066-.022.1-.032.01-.114.01-.232.003-.36a2.257 2.257.0 0 0-.184-.804 1.433 1.433.0 0 0-.413-.572.744.744.0 0 0-.529-.187c-.19.01-.348.09-.505.248-.156.157-.264.35-.345.615a2.3 2.3.0 0 0-.093.822c.017.299.076.552.185.804.092.214.198.375.333.504l.16-.12c.07-.051.128-.099.212-.166a.772.772.0 0 1-.24-.33 1.355 1.355.0 0 1-.098-.405l-.002-.017a1.34 1.34.0 0 1 .028-.433.79.79.0 0 1 .145-.328c.068-.085.14-.128.228-.136a.324.324.0 0 1 .246.094.779.779.0 0 1 .2.298c.052.128.083.254.098.405v.017c.012.114.01.215-.004.315.142-.095.29-.167.475-.232z" fill="#0f5aef"></path></svg>