
<svg width="32px" height="28px" viewBox="0 0 32 28" version="1.1" xmlns="http://www.w3.org/2000/svg" xmlns:xlink="http://www.w3.org/1999/xlink">
    <g id="Page-1" stroke="none" stroke-width="1" fill="none" fill-rule="evenodd">
        <g id="macos" fill="#001e58" opacity=".5">
            <path d="M19.943,22.572 C22.575,21.937 24.559,20.593 25.848,18.53 C26.0373508,18.2270388 26.0506902,17.8460736 25.8829935,17.5306105 C25.7152967,17.2151473 25.392041,17.0131124 25.0349935,17.0006105 C24.677946,16.9881085 24.3413508,17.1670388 24.152,17.47 C23.19,19.009 21.707,20.05 19.664,20.582 C19.4971852,19.0496759 19.4037452,17.5102509 19.384,15.969 C19.3670776,14.8773337 18.477797,14.0009606 17.386,14 L14.5,14 C15.12,8.897 17.518,3.165 18.799,0 L29,0 C30.6568542,1.01453063e-16 32,1.34314575 32,3 L32,25 C32,26.6568542 30.6568542,28 29,28 L21.51,28 C20.822,26.474 20.299,24.664 19.943,22.572 Z M23,6 C22.4477153,6 22,6.44771525 22,7 L22,10 C22,10.5522847 22.4477153,11 23,11 C23.5522847,11 24,10.5522847 24,10 L24,7 C24,6.44771525 23.5522847,6 23,6 Z" id="Shape"></path>
            <path d="M17.97,22.904 C18.293,24.804 18.75,26.502 19.34,28 L3,28 C1.34314575,28 2.02906125e-16,26.6568542 0,25 L0,3 C-2.02906125e-16,1.34314575 1.34314575,3.04359188e-16 3,0 L16.642,0 C15.262,3.42 13.11,8.863 12.515,13.759 C12.4460324,14.327175 12.6237907,14.8976731 13.0032882,15.3261133 C13.3827857,15.7545536 13.9276545,15.9998779 14.5,16 L17.385,16 C17.413,17.755 17.514,19.395 17.69,20.923 C17.1282266,20.9757419 16.5642419,21.0014383 16,21 C11.985,21 9.312,19.812 7.848,17.47 C7.65864924,17.1670388 7.32205403,16.9881085 6.96500654,17.0006105 C6.60795904,17.0131124 6.28470327,17.2151473 6.11700654,17.5306105 C5.9493098,17.8460736 5.96264924,18.2270388 6.152,18.53 C8.022,21.521 11.35,23 16,23 C16.686,23 17.343,22.968 17.97,22.904 Z M9,6 C8.44771525,6 8,6.44771525 8,7 L8,10 C8,10.5522847 8.44771525,11 9,11 C9.55228475,11 10,10.5522847 10,10 L10,7 C10,6.44771525 9.55228475,6 9,6 Z" id="Shape"></path>
        </g>
    </g>
</svg>