<svg xmlns="http://www.w3.org/2000/svg" xmlns:xlink="http://www.w3.org/1999/xlink" viewBox="0 0 116.54 117.72"><defs><style>.cls-1{fill:none;stroke:#92cbff;stroke-miterlimit:10;stroke-dasharray:2;}.cls-2{fill:#709ee0;opacity:0.18;}.cls-3{fill:url(#linear-gradient);}.cls-4{fill:url(#linear-gradient-2);}.cls-5{fill:url(#linear-gradient-3);}.cls-6{fill:url(#linear-gradient-4);}.cls-7{fill:url(#linear-gradient-5);}.cls-8{fill:url(#linear-gradient-6);}</style><linearGradient id="linear-gradient" x1="10.69" y1="25.4" x2="41.04" y2="25.4" gradientUnits="userSpaceOnUse"><stop offset="0" stop-color="#00ddf0"/><stop offset="1" stop-color="#0076f0"/></linearGradient><linearGradient id="linear-gradient-2" x1="55.83" y1="65.66" x2="116.54" y2="65.66" xlink:href="#linear-gradient"/><linearGradient id="linear-gradient-3" x1="69.99" y1="65.66" x2="102.37" y2="65.66" xlink:href="#linear-gradient"/><linearGradient id="linear-gradient-4" x1="75.05" y1="65.66" x2="97.31" y2="65.66" xlink:href="#linear-gradient"/><linearGradient id="linear-gradient-5" x1="49.69" y1="103.71" x2="64.79" y2="103.71" xlink:href="#linear-gradient"/><linearGradient id="linear-gradient-6" x1="42.88" y1="101.67" x2="57.82" y2="101.67" xlink:href="#linear-gradient"/></defs><title>Veil Bounty</title><g id="Layer_2" data-name="Layer 2"><g id="Layer_1-2" data-name="Layer 1"><line class="cls-1" x1="93.15" y1="28.56" x2="93.15" y2="36.27"/><circle class="cls-2" cx="25.4" cy="25.4" r="25.4"/><path class="cls-3" d="M38.56,24.56a16.94,16.94,0,0,0-4.47-.63V17.48a.53.53,0,0,0-.13-.36c-.2-.7-1-1.27-2.41-1.7a18,18,0,0,0-5-.63,17.52,17.52,0,0,0-4.95.63c-1.09.34-2.41,1-2.41,2a1.23,1.23,0,0,0,0,.2l.07,2.76a7.22,7.22,0,0,0-8.46,5.75,6.72,6.72,0,0,0-.13,1.35,7.24,7.24,0,0,0,11.8,5.61,17.51,17.51,0,0,0,3.87.42c.31,1.68,3.93,2.45,7.32,2.45a17.17,17.17,0,0,0,5-.65c1.1-.34,2.41-1,2.41-2.06V26.66a.62.62,0,0,0,0-.23C40.89,25.64,40.08,25,38.56,24.56Zm-16.6-8A16.1,16.1,0,0,1,26.55,16a16.77,16.77,0,0,1,4.66.59c1.31.4,1.59.81,1.59.89s-.28.5-1.6.9a17.05,17.05,0,0,1-4.65.58,16.62,16.62,0,0,1-4.45-.54c-1.3-.37-1.66-.79-1.69-.92s0,0,0,0h0C20.41,17.38,20.69,17,22,16.58ZM32.88,19v1.55a.6.6,0,0,0-.08.29c0,.08-.28.5-1.6.9a17.45,17.45,0,0,1-4.65.58,17.68,17.68,0,0,1-4.12-.45h-.05a6.79,6.79,0,0,0-1.89-1.07l0-1.71a6.68,6.68,0,0,0,1.31.5,17.87,17.87,0,0,0,4.79.59,18,18,0,0,0,5-.63A6.4,6.4,0,0,0,32.88,19ZM22,32a6,6,0,0,1-8.11-8.91,6.09,6.09,0,0,1,4.06-1.57,6,6,0,0,1,1.78.27,6.07,6.07,0,0,1,4.12,4.54A6.22,6.22,0,0,1,24,27.52,6,6,0,0,1,22,32Zm1.53.13a6.92,6.92,0,0,0,1.16-2c.52,0,1.06.07,1.62.07v.11l0,2.05A17.78,17.78,0,0,1,23.51,32.11Zm1.61-5.3c.36,0,.73,0,1.1,0,0,0,0,0,0,0l0,2.1c-.42,0-.84,0-1.25,0a7.59,7.59,0,0,0,.14-1.42,4.26,4.26,0,0,0,0-.71Zm1.49-1.16h-.06c-.58,0-1.14,0-1.66-.06a7.2,7.2,0,0,0-1.08-2.25,20.9,20.9,0,0,0,2.74.18,18,18,0,0,0,5-.64,7.41,7.41,0,0,0,1.33-.54v1.6c-2.6.07-5.28.62-6.27,1.71Zm.81.93c.06-.17.5-.56,1.74-.91a16.25,16.25,0,0,1,4.33-.52h.07a16.8,16.8,0,0,1,4.66.58c1.27.38,1.57.77,1.59.87h0c0,.09-.31.51-1.65.91a17.17,17.17,0,0,1-4.6.56,16.65,16.65,0,0,1-4.38-.52,3.16,3.16,0,0,1-1.74-.88.36.36,0,0,0,0-.1ZM39.83,33.3c0,.09-.27.51-1.55.91a16.22,16.22,0,0,1-4.6.59,16.39,16.39,0,0,1-4.59-.58c-1.28-.39-1.54-.79-1.54-.88v0l0-1.74a14.82,14.82,0,0,0,6,1.06,17.85,17.85,0,0,0,5-.63,7.32,7.32,0,0,0,1.29-.54Zm0-3.6c0,.08,0,.17,0,.26s-.28.49-1.59.89a16.47,16.47,0,0,1-4.63.58c-3.32,0-5.57-.74-6.06-1.33l0-.52,0-1.38a6.75,6.75,0,0,0,1.38.52,17.87,17.87,0,0,0,4.71.57,18.47,18.47,0,0,0,4.94-.61,7,7,0,0,0,1.33-.54V29.7Z"/><line class="cls-1" x1="25.72" y1="50.8" x2="25.72" y2="117.72"/><line class="cls-1" x1="93.15" y1="97.06" x2="93.15" y2="117.72"/><line class="cls-1" x1="93.15" y1="117.21" x2="25.44" y2="117.21"/><line class="cls-1" x1="93.15" y1="29.19" x2="50.8" y2="29.19"/><path class="cls-4" d="M115.53,58.58h-6.12a23.37,23.37,0,0,0-1.79-4.33l4.32-4.33a1,1,0,0,0,0-1.43l-8.59-8.59a1,1,0,0,0-1.43,0l-4.33,4.33a23,23,0,0,0-4.32-1.8V36.32a1,1,0,0,0-1-1H80.11a1,1,0,0,0-1,1v6.11a23.41,23.41,0,0,0-4.33,1.8L70.45,39.9a1,1,0,0,0-1.43,0l-8.6,8.59a1,1,0,0,0,0,1.43l4.33,4.33A24.12,24.12,0,0,0,63,58.58H56.84a1,1,0,0,0-1,1V71.73a1,1,0,0,0,1,1H63a24.12,24.12,0,0,0,1.8,4.33L60.42,81.4a1,1,0,0,0,0,1.43L69,91.42a1,1,0,0,0,1.43,0l4.32-4.33a22.75,22.75,0,0,0,4.33,1.8V95a1,1,0,0,0,1,1H92.26a1,1,0,0,0,1-1V88.89a22.39,22.39,0,0,0,4.32-1.8l4.33,4.33a1,1,0,0,0,1.43,0l8.59-8.59a1,1,0,0,0,0-1.43l-4.32-4.33a23.37,23.37,0,0,0,1.79-4.33h6.12a1,1,0,0,0,1-1V59.59a1,1,0,0,0-1-1Zm-1,12.14h-5.87a1,1,0,0,0-1,.75,21.48,21.48,0,0,1-2.18,5.26,1,1,0,0,0,.15,1.23l4.15,4.15-7.15,7.16-4.15-4.14A1,1,0,0,0,97.27,85,21.71,21.71,0,0,1,92,87.15a1,1,0,0,0-.76,1V94H81.12V88.12a1,1,0,0,0-.75-1A21.44,21.44,0,0,1,75.11,85a1,1,0,0,0-1.22.16l-4.15,4.15-7.17-7.16L66.72,78a1,1,0,0,0,.16-1.23,21.41,21.41,0,0,1-2.18-5.26,1,1,0,0,0-1-.76H57.85V60.6h5.87a1,1,0,0,0,1-.75,21.41,21.41,0,0,1,2.18-5.26,1,1,0,0,0-.16-1.23l-4.15-4.14,7.16-7.17,4.15,4.15a1,1,0,0,0,1.22.16,21.44,21.44,0,0,1,5.26-2.19,1,1,0,0,0,.76-1V37.33H91.24V43.2a1,1,0,0,0,.76,1,21.41,21.41,0,0,1,5.26,2.18,1,1,0,0,0,1.22-.16l4.15-4.15,7.16,7.16-4.15,4.15a1,1,0,0,0-.16,1.22,21.41,21.41,0,0,1,2.18,5.26,1,1,0,0,0,1,.76h5.87Z"/><path class="cls-5" d="M86.18,49.47a16.19,16.19,0,1,0,16.19,16.19A16.19,16.19,0,0,0,86.18,49.47Zm0,30.36a14.17,14.17,0,1,1,14.17-14.17A14.17,14.17,0,0,1,86.18,79.83Z"/><path class="cls-6" d="M86.18,54.53A11.13,11.13,0,1,0,97.31,65.66,11.13,11.13,0,0,0,86.18,54.53Zm0,20.24a9.11,9.11,0,1,1,9.11-9.11,9.1,9.1,0,0,1-9.11,9.11Z"/><path class="cls-7" d="M61.12,94.5h3.32a.34.34,0,0,0,0-.68H60.35a.34.34,0,0,0-.34.34v4.1a.34.34,0,1,0,.68,0V95l.42.41a10.24,10.24,0,0,1-11,16.78.33.33,0,0,0-.44.19.33.33,0,0,0,.19.44A10.91,10.91,0,0,0,61.59,95Z"/><path class="cls-8" d="M47.39,106.78a.34.34,0,0,0-.34.34v3.3l-.49-.48a10.23,10.23,0,0,1,10.8-16.83.34.34,0,0,0,.24-.64,10.91,10.91,0,0,0-11.52,18l.45.45H43.29a.35.35,0,0,0,0,.69h4s.26,0,.32-.09h0a.32.32,0,0,0,.11-.24v-4.1A.34.34,0,0,0,47.39,106.78Z"/></g></g></svg>