<svg xmlns="http://www.w3.org/2000/svg" xmlns:xlink="http://www.w3.org/1999/xlink" viewBox="0 0 75.02 76.9"><defs><style>.cls-1,.cls-2{fill:none;}.cls-1,.cls-2,.cls-3,.cls-4{stroke-miterlimit:10;}.cls-1{stroke:url(#linear-gradient);}.cls-2{stroke:url(#linear-gradient-2);}.cls-3,.cls-4{fill:#034089;}.cls-3{stroke:#00ddf0;stroke-width:0.75px;}.cls-4{stroke:#2165b7;stroke-width:0.25px;opacity:0.68;}.cls-5{fill:#059dcc;}.cls-6{fill:url(#linear-gradient-3);}.cls-7{fill:url(#linear-gradient-4);}.cls-8{fill:url(#linear-gradient-5);}.cls-9{fill:url(#linear-gradient-6);}</style><linearGradient id="linear-gradient" x1="485.75" y1="-160.67" x2="524.88" y2="-199.8" gradientTransform="matrix(-0.61, 0.79, 0.79, 0.61, 484.79, -272.33)" gradientUnits="userSpaceOnUse"><stop offset="0" stop-color="#0076f0" stop-opacity="0"/><stop offset="1" stop-color="#2ebeff"/></linearGradient><linearGradient id="linear-gradient-2" x1="305.16" y1="-531.29" x2="344.29" y2="-570.42" gradientTransform="matrix(0.61, -0.79, -0.79, -0.61, -593.74, -19.82)" xlink:href="#linear-gradient"/><linearGradient id="linear-gradient-3" x1="29.35" y1="41.62" x2="34.25" y2="41.62" gradientUnits="userSpaceOnUse"><stop offset="0" stop-color="#00ddf0"/><stop offset="1" stop-color="#0076f0"/></linearGradient><linearGradient id="linear-gradient-4" x1="40.77" y1="40.26" x2="45.66" y2="40.26" xlink:href="#linear-gradient-3"/><linearGradient id="linear-gradient-5" x1="35.06" y1="40.94" x2="39.95" y2="40.94" xlink:href="#linear-gradient-3"/><linearGradient id="linear-gradient-6" x1="29.89" y1="32.93" x2="45.12" y2="32.93" xlink:href="#linear-gradient-3"/></defs><title>Buy exchange</title><g id="Layer_2" data-name="Layer 2"><g id="Layer_1-2" data-name="Layer 1"><g id="spin"><path class="cls-1" d="M59.69,7.88a35.73,35.73,0,0,0-50,6.54l-4-3.1,1.87,14.3,14.3-1.87-4.05-3.11A25.5,25.5,0,0,1,63.23,32.9"/></g><g id="spin-2" data-name="spin"><path class="cls-2" d="M15.14,69a35.74,35.74,0,0,0,50.05-6.55l4,3.11-1.87-14.3-14.3,1.87,4,3.11A25.5,25.5,0,0,1,11.61,44"/></g><circle class="cls-3" cx="9.44" cy="41.74" r="9.07"/><circle class="cls-3" cx="65.57" cy="32.67" r="9.07"/><circle class="cls-4" cx="37.51" cy="37.66" r="15.52"/><path class="cls-5" d="M6.08,38.63h1l2,4.62,2-4.62h1l-3,6.88Z"/><path class="cls-5" d="M68,33.88a2,2,0,0,1-2.16,2H63.32V29.19h2c1.45,0,2.31.6,2.31,1.75a1.4,1.4,0,0,1-.8,1.35A1.54,1.54,0,0,1,68,33.88Zm-3.68-2.06h1.2c.76,0,1.2-.26,1.2-.84s-.44-.84-1.2-.84h-1.2Zm2.72,2c0-.74-.53-1.08-1.36-1.08H64.28v2.16h1.36C66.47,34.94,67,34.6,67,33.86Z"/><g id="surface1"><path class="cls-6" d="M33.43,38.09H30.17a.82.82,0,0,0-.82.82v5.43a.82.82,0,0,0,.82.82h3.26a.82.82,0,0,0,.82-.82V38.91A.82.82,0,0,0,33.43,38.09Zm.27,6.25a.27.27,0,0,1-.27.27H30.17a.27.27,0,0,1-.27-.27V38.91a.28.28,0,0,1,.27-.28h3.26a.28.28,0,0,1,.27.28Z"/><path class="cls-7" d="M44.85,35.37H41.59a.82.82,0,0,0-.82.82v8.15a.82.82,0,0,0,.82.82h3.26a.82.82,0,0,0,.81-.82V36.19A.82.82,0,0,0,44.85,35.37Zm.27,9a.27.27,0,0,1-.27.27H41.59a.28.28,0,0,1-.28-.27V36.19a.28.28,0,0,1,.28-.27h3.26a.27.27,0,0,1,.27.27Z"/><path class="cls-8" d="M39.14,36.73H35.88a.82.82,0,0,0-.82.82v6.79a.82.82,0,0,0,.82.82h3.26a.82.82,0,0,0,.81-.82V37.55A.82.82,0,0,0,39.14,36.73Zm.27,7.61a.27.27,0,0,1-.27.27H35.88a.28.28,0,0,1-.28-.27V37.55a.29.29,0,0,1,.28-.28h3.26a.28.28,0,0,1,.27.28Z"/><path class="cls-9" d="M39.49,35a.26.26,0,0,0,.38,0l4.71-4.7v.43a.27.27,0,0,0,.54,0V29.66a.29.29,0,0,0,0-.09v0l0-.06a.18.18,0,0,0-.09-.06h0l-.09,0h-1.1a.27.27,0,0,0,0,.54h.43l-4.51,4.51-2.39-2.39a.28.28,0,0,0-.38,0l-2.8,2.8-1.3-1.3a.27.27,0,0,0-.39,0L30,36a.27.27,0,0,0-.08.26.27.27,0,0,0,.2.19.26.26,0,0,0,.26-.07l2.25-2.26,1.31,1.31a.28.28,0,0,0,.38,0l2.8-2.8Z"/></g></g></g></svg>