<?xml version="1.0" encoding="UTF-8"?>
<svg width="64px" height="58px" viewBox="0 0 64 58" version="1.1" xmlns="http://www.w3.org/2000/svg" xmlns:xlink="http://www.w3.org/1999/xlink">
    <!-- Generator: Sketch Beta 52.4 (67378) - http://www.bohemiancoding.com/sketch -->
    <title>mine-simple</title>
    <desc>Created with Sketch Beta.</desc>
    <defs>
        <linearGradient x1="-0.00882886161%" y1="50.0161571%" x2="99.9980152%" y2="50.0161571%" id="linearGradient-1">
            <stop stop-color="#00DDF0" offset="0%"></stop>
            <stop stop-color="#0076F0" offset="100%"></stop>
        </linearGradient>
        <linearGradient x1="-0.00589980219%" y1="49.9991637%" x2="100.009995%" y2="49.9991637%" id="linearGradient-2">
            <stop stop-color="#00DDF0" offset="0%"></stop>
            <stop stop-color="#0076F0" offset="100%"></stop>
        </linearGradient>
    </defs>
    <g id="Page-1" stroke="none" stroke-width="1" fill="none" fill-rule="evenodd">
        <g id="mine-simple" fill-rule="nonzero">
            <path d="M3.81,57.24 C3.49733881,57.1883575 3.22118913,57.0066801 3.05,56.74 L0.37,52.8 C0.00163568483,52.258412 0.140187144,51.5209607 0.68,51.15 L39.33,24.87 C39.874183,24.5036275 40.6122261,24.6467631 40.98,25.19 L43.66,29.13 C43.8408432,29.3888702 43.9093668,29.709849 43.85,30.02 C43.7895415,30.3291385 43.6099553,30.6021094 43.35,30.78 L4.7,57.06 C4.43921866,57.2363112 4.1188001,57.3011149 3.81,57.24 Z M3,52.45 L4.34,54.45 L41,29.48 L39.66,27.48 L3,52.45 Z" id="Shape" fill="url(#linearGradient-1)"></path>
            <path d="M60.46,52.24 C59.9905002,52.1565669 59.6186122,51.7965478 59.52,51.33 C57.7615945,43.7995323 54.8900128,36.5733924 51,29.89 L45.35,33.74 C44.7984344,34.085511 44.0736049,33.9457848 43.69,33.42 L37,23.57 C36.6316357,23.028412 36.7701871,22.2909607 37.31,21.92 L43,18.07 C38.2031947,12.0019911 32.5312411,6.6805325 26.17,2.28 C25.7192525,1.98392316 25.52927,1.4181058 25.71,0.91 C25.8798766,0.403491305 26.3664831,0.0722717449 26.9,0.1 C38.1,0.74 49.02,7.36 56.11,17.78 C63.2,28.2 65.33,40.78 61.81,51.45 C61.6460201,51.9609461 61.1554824,52.2948415 60.62,52.26 L60.46,52.24 Z M51.63,27 C51.9514352,27.0757313 52.2289161,27.2775356 52.4,27.56 C55.8843791,33.4190223 58.6477551,39.67775 60.63,46.2 C62.11,37.31 59.81,27.48 54.11,19.1 C48.41,10.72 40.11,4.97 31.31,3.1 C36.6583812,7.33986867 41.4734547,12.2120246 45.65,17.61 C45.8525997,17.8668172 45.9362448,18.1977606 45.88,18.52 C45.8341925,18.8454583 45.6524738,19.1362082 45.38,19.32 L39.64,23.22 L45,31.1 L50.73,27.2 C50.9914,27.016151 51.3153369,26.9441651 51.63,27 Z" id="Shape" fill="url(#linearGradient-2)"></path>
        </g>
    </g>
</svg>