<svg xmlns="http://www.w3.org/2000/svg" xmlns:xlink="http://www.w3.org/1999/xlink" viewBox="0 0 115.18 117.72"><defs><style>.cls-1,.cls-6,.cls-7{fill:none;stroke-miterlimit:10;}.cls-1{stroke:#92cbff;stroke-dasharray:2;}.cls-2{fill:#709ee0;opacity:0.18;}.cls-3{fill:url(#linear-gradient);}.cls-4{fill:url(#linear-gradient-2);}.cls-5{fill:url(#linear-gradient-3);}.cls-6{stroke:#3786cc;}.cls-6,.cls-7{stroke-width:0.5px;}.cls-7{stroke:#0bdef4;}</style><linearGradient id="linear-gradient" x1="10.69" y1="25.4" x2="41.04" y2="25.4" gradientUnits="userSpaceOnUse"><stop offset="0" stop-color="#00ddf0"/><stop offset="1" stop-color="#0076f0"/></linearGradient><linearGradient id="linear-gradient-2" x1="48.16" y1="81.97" x2="91.87" y2="81.97" xlink:href="#linear-gradient"/><linearGradient id="linear-gradient-3" x1="73.64" y1="67.18" x2="111.48" y2="67.18" xlink:href="#linear-gradient"/></defs><title>Veil Mine</title><g id="Layer_2" data-name="Layer 2"><g id="Layer_1-2" data-name="Layer 1"><line class="cls-1" x1="93.15" y1="28.56" x2="93.15" y2="43.33"/><circle class="cls-2" cx="25.4" cy="25.4" r="25.4"/><path class="cls-3" d="M38.56,24.56a16.94,16.94,0,0,0-4.47-.63V17.48a.53.53,0,0,0-.13-.36c-.2-.7-1-1.27-2.41-1.7a18,18,0,0,0-5-.63,17.52,17.52,0,0,0-4.95.63c-1.09.34-2.41,1-2.41,2a1.23,1.23,0,0,0,0,.2l.07,2.76a7.22,7.22,0,0,0-8.46,5.75,6.72,6.72,0,0,0-.13,1.35,7.24,7.24,0,0,0,11.8,5.61,17.51,17.51,0,0,0,3.87.42c.31,1.68,3.93,2.45,7.32,2.45a17.17,17.17,0,0,0,5-.65c1.1-.34,2.41-1,2.41-2.06V26.66a.62.62,0,0,0,0-.23C40.89,25.64,40.08,25,38.56,24.56Zm-16.6-8A16.1,16.1,0,0,1,26.55,16a16.77,16.77,0,0,1,4.66.59c1.31.4,1.59.81,1.59.89s-.28.5-1.6.9a17.05,17.05,0,0,1-4.65.58,16.62,16.62,0,0,1-4.45-.54c-1.3-.37-1.66-.79-1.69-.92s0,0,0,0h0C20.41,17.38,20.69,17,22,16.58ZM32.88,19v1.55a.6.6,0,0,0-.08.29c0,.08-.28.5-1.6.9a17.45,17.45,0,0,1-4.65.58,17.68,17.68,0,0,1-4.12-.45h-.05a6.79,6.79,0,0,0-1.89-1.07l0-1.71a6.68,6.68,0,0,0,1.31.5,17.87,17.87,0,0,0,4.79.59,18,18,0,0,0,5-.63A6.4,6.4,0,0,0,32.88,19ZM22,32a6,6,0,0,1-8.11-8.91,6.09,6.09,0,0,1,4.06-1.57,6,6,0,0,1,1.78.27,6.07,6.07,0,0,1,4.12,4.54A6.22,6.22,0,0,1,24,27.52,6,6,0,0,1,22,32Zm1.53.13a6.92,6.92,0,0,0,1.16-2c.52,0,1.06.07,1.62.07v.11l0,2.05A17.78,17.78,0,0,1,23.51,32.11Zm1.61-5.3c.36,0,.73,0,1.1,0,0,0,0,0,0,0l0,2.1c-.42,0-.84,0-1.25,0a7.59,7.59,0,0,0,.14-1.42,4.26,4.26,0,0,0,0-.71Zm1.49-1.16h-.06c-.58,0-1.14,0-1.66-.06a7.2,7.2,0,0,0-1.08-2.25,20.9,20.9,0,0,0,2.74.18,18,18,0,0,0,5-.64,7.41,7.41,0,0,0,1.33-.54v1.6c-2.6.07-5.28.62-6.27,1.71Zm.81.93c.06-.17.5-.56,1.74-.91a16.25,16.25,0,0,1,4.33-.52h.07a16.8,16.8,0,0,1,4.66.58c1.27.38,1.57.77,1.59.87h0c0,.09-.31.51-1.65.91a17.17,17.17,0,0,1-4.6.56,16.65,16.65,0,0,1-4.38-.52,3.16,3.16,0,0,1-1.74-.88.36.36,0,0,0,0-.1ZM39.83,33.3c0,.09-.27.51-1.55.91a16.22,16.22,0,0,1-4.6.59,16.39,16.39,0,0,1-4.59-.58c-1.28-.39-1.54-.79-1.54-.88v0l0-1.74a14.82,14.82,0,0,0,6,1.06,17.85,17.85,0,0,0,5-.63,7.32,7.32,0,0,0,1.29-.54Zm0-3.6c0,.08,0,.17,0,.26s-.28.49-1.59.89a16.47,16.47,0,0,1-4.63.58c-3.32,0-5.57-.74-6.06-1.33l0-.52,0-1.38a6.75,6.75,0,0,0,1.38.52,17.87,17.87,0,0,0,4.71.57,18.47,18.47,0,0,0,4.94-.61,7,7,0,0,0,1.33-.54V29.7Z"/><line class="cls-1" x1="25.72" y1="50.8" x2="25.72" y2="117.72"/><line class="cls-1" x1="93.15" y1="97.06" x2="93.15" y2="117.72"/><line class="cls-1" x1="93.15" y1="117.21" x2="25.44" y2="117.21"/><line class="cls-1" x1="93.15" y1="29.19" x2="50.8" y2="29.19"/><path class="cls-4" d="M51.81,98.24a1.12,1.12,0,0,1-.76-.5L48.37,93.8a1.19,1.19,0,0,1,.31-1.65L87.33,65.87a1.19,1.19,0,0,1,1.65.32l2.68,3.94a1.17,1.17,0,0,1,.19.89,1.2,1.2,0,0,1-.5.76L52.7,98.06A1.18,1.18,0,0,1,51.81,98.24ZM51,93.45l1.34,2L89,70.48l-1.34-2Z"/><path class="cls-5" d="M108.46,93.24a1.17,1.17,0,0,1-.94-.91A77.78,77.78,0,0,0,99,70.89l-5.65,3.85a1.24,1.24,0,0,1-1.66-.32L85,64.57a1.19,1.19,0,0,1,.31-1.65L91,59.07A78.07,78.07,0,0,0,74.17,43.28a1.17,1.17,0,0,1-.46-1.37,1.19,1.19,0,0,1,1.19-.81c11.2.64,22.12,7.26,29.21,17.68s9.22,23,5.7,33.67a1.17,1.17,0,0,1-1.19.81ZM99.63,68h0a1.23,1.23,0,0,1,.77.56,84.59,84.59,0,0,1,8.23,18.64c1.48-8.89-.82-18.72-6.52-27.1s-14-14.13-22.8-16A84.51,84.51,0,0,1,93.65,58.61a1.15,1.15,0,0,1,.23.91,1.16,1.16,0,0,1-.5.8l-5.74,3.9L93,72.1l5.73-3.9A1.2,1.2,0,0,1,99.63,68Z"/><circle class="cls-6" cx="108.97" cy="103.27" r="5.95"/><circle class="cls-7" cx="90.97" cy="87.27" r="5.95"/></g></g></svg>