
<svg width="75px" height="64px" viewBox="0 0 75 64" version="1.1" xmlns="http://www.w3.org/2000/svg" xmlns:xlink="http://www.w3.org/1999/xlink">
    <defs>
        <linearGradient x1="-0.0128816765%" y1="50.0645654%" x2="99.9244927%" y2="50.0645654%" id="linearGradient-1">
            <stop stop-color="#00DDF0" offset="0%"></stop>
            <stop stop-color="#0076F0" offset="100%"></stop>
        </linearGradient>
        <linearGradient x1="0.0125598328%" y1="49.9900468%" x2="99.9777815%" y2="49.9900468%" id="linearGradient-2">
            <stop stop-color="#00DDF0" offset="0%"></stop>
            <stop stop-color="#0076F0" offset="100%"></stop>
        </linearGradient>
        <linearGradient x1="0%" y1="50%" x2="100.257732%" y2="50%" id="linearGradient-3">
            <stop stop-color="#00DDF0" offset="0%"></stop>
            <stop stop-color="#0076F0" offset="100%"></stop>
        </linearGradient>
    </defs>
    <g id="Page-1" stroke="none" stroke-width="1" fill="none" fill-rule="evenodd">
        <g id="wallet">
            <path d="M63.7,15.42 C64.2522847,15.42 64.7,14.9722847 64.7,14.42 L64.7,11.21 C64.7053648,10.3570217 64.3688924,9.53742492 63.7657337,8.93426628 C63.1625751,8.33110763 62.3429783,7.9946352 61.49,8 L56.26,8 L55.07,4.48 C54.8910924,3.99360285 54.3702268,3.72448898 53.87,3.86 L25.57,12.47 C25.0667952,12.6372082 24.7815925,13.1681241 24.92,13.68 C25.0517431,14.0843541 25.4248175,14.3611513 25.85,14.37 C25.9427618,14.3846074 26.0372382,14.3846074 26.13,14.37 L53.53,6 L56.14,13.71 C56.1848018,14.1144745 56.4702425,14.4514576 56.861838,14.5621815 C57.2534335,14.6729053 57.6730691,14.5352829 57.9230356,14.2141543 C58.1730021,13.8930257 58.2034366,13.4524491 58,13.1 L56.92,10 L61.49,10 C61.8188684,10 62.1342673,10.1306425 62.3668124,10.3631876 C62.5993575,10.5957327 62.73,10.9111316 62.73,11.24 L62.73,14.48 C62.7608901,14.9973547 63.1819304,15.4053731 63.7,15.42 Z" id="Path" fill="url(#linearGradient-1)"></path>
            <path d="M71.46,30 C70.9077153,30 70.46,30.4477153 70.46,31 C70.46,31.5522847 70.9077153,32 71.46,32 C72.15,32 72.46,32.29 72.46,33 L72.46,44.59 C72.46,45.27 72.17,45.59 71.46,45.59 L55.91,45.59 C55.22,45.59 54.91,45.3 54.91,44.59 L54.91,34.86 C54.91,34.18 55.2,33.86 55.91,33.86 L67.57,33.86 C68.1222847,33.86 68.57,33.4122847 68.57,32.86 L68.57,21.25 C68.6238317,20.4602916 68.3335205,19.6858876 67.7738164,19.1261836 C67.2141124,18.5664795 66.4397084,18.2761683 65.65,18.33 L6.32,18.33 C5.26438105,18.4156109 4.22441687,18.0333552 3.47553084,17.2844692 C2.7266448,16.5355831 2.34438908,15.4956189 2.43,14.44 C2.34438908,13.3843811 2.7266448,12.3444169 3.47553084,11.5955308 C4.22441687,10.8466448 5.26438105,10.4643891 6.32,10.55 L16.19,10.55 L10.3,12.55 C9.80386113,12.7294402 9.5324775,13.2634532 9.68,13.77 C9.81855123,14.1664649 10.190064,14.4341139 10.61,14.44 C10.7094311,14.4550853 10.8105689,14.4550853 10.91,14.44 L46.15,2.82 C46.5661298,2.79021922 46.9200456,2.5052281 47.0378917,2.10502412 C47.1557378,1.70482015 47.0127484,1.27350779 46.6791648,1.02296258 C46.3455812,0.772417366 45.8915073,0.755292378 45.54,0.98 L22,8.64 C21.9534506,8.63532161 21.9065494,8.63532161 21.86,8.64 L6.32,8.64 C4.74594543,8.54593865 3.20680861,9.12954354 2.0908434,10.2435978 C0.974878194,11.3576522 0.388636391,12.8957865 0.48,14.47 L0.48,57.23 C0.388636391,58.8042135 0.974878194,60.3423478 2.0908434,61.4564022 C3.20680861,62.5704565 4.74594543,63.1540614 6.32,63.06 L65.63,63.06 C66.4197084,63.1138317 67.1941124,62.8235205 67.7538164,62.2638164 C68.3135205,61.7041124 68.6038317,60.9297084 68.55,60.14 L68.55,50.42 C68.55,49.8677153 68.1022847,49.42 67.55,49.42 C66.9977153,49.42 66.55,49.8677153 66.55,50.42 L66.55,60.14 C66.55,60.83 66.26,61.14 65.55,61.14 L6.32,61.14 C5.26438105,61.2256109 4.22441687,60.8433552 3.47553084,60.0944692 C2.7266448,59.3455831 2.34438908,58.3056189 2.43,57.25 L2.43,18.94 C3.52343359,19.8397475 4.90441345,20.3154578 6.32,20.28 L65.63,20.28 C66.31,20.28 66.63,20.57 66.63,21.28 L66.63,32 L55.91,32 C55.1321524,31.9476269 54.369023,32.2303074 53.8130003,32.7767765 C53.2569775,33.3232456 52.9611146,34.0813616 53,34.86 L53,44.59 C52.9458113,45.3789215 53.2363708,46.1525787 53.7964952,46.7107849 C54.3566196,47.268991 55.1312691,47.5568948 55.92,47.5 L71.47,47.5 C72.2587309,47.5568948 73.0333804,47.268991 73.5935048,46.7107849 C74.1536292,46.1525787 74.4441887,45.3789215 74.39,44.59 L74.39,32.92 C74.4441633,32.128429 74.1525419,31.3522451 73.5905497,30.792171 C73.0285575,30.2320969 72.2513812,29.9431308 71.46,30 Z" id="Path" fill="url(#linearGradient-2)"></path>
            <circle id="Oval" fill="url(#linearGradient-3)" cx="62.71" cy="39.72" r="1.94"></circle>
        </g>
    </g>
</svg>