<svg xmlns="http://www.w3.org/2000/svg" xmlns:xlink="http://www.w3.org/1999/xlink" viewBox="0 0 130.38 117.72"><defs><style>.cls-1{fill:none;stroke:#92cbff;stroke-miterlimit:10;stroke-dasharray:2;}.cls-2{fill:#709ee0;opacity:0.18;}.cls-3{fill:url(#linear-gradient);}.cls-4{fill:url(#linear-gradient-2);}.cls-5{fill:url(#linear-gradient-3);}.cls-6{fill:url(#linear-gradient-4);}</style><linearGradient id="linear-gradient" x1="80.88" y1="43.63" x2="120.67" y2="43.63" gradientUnits="userSpaceOnUse"><stop offset="0" stop-color="#00ddf0"/><stop offset="1" stop-color="#0076f0"/></linearGradient><linearGradient id="linear-gradient-2" x1="56.48" y1="65.94" x2="130.38" y2="65.94" xlink:href="#linear-gradient"/><linearGradient id="linear-gradient-3" x1="116.77" y1="73.72" x2="120.66" y2="73.72" xlink:href="#linear-gradient"/><linearGradient id="linear-gradient-4" x1="10.32" y1="23.44" x2="42.57" y2="23.44" xlink:href="#linear-gradient"/></defs><title>Asset 1</title><g id="Layer_2" data-name="Layer 2"><g id="Layer_1-2" data-name="Layer 1"><line class="cls-1" x1="93.15" y1="28.56" x2="93.15" y2="36.27"/><circle class="cls-2" cx="25.4" cy="25.4" r="25.4"/><path class="cls-3" d="M119.7,49.42a1,1,0,0,0,1-1V45.21A3.19,3.19,0,0,0,117.49,42h-5.23l-1.19-3.52a1,1,0,0,0-1.2-.62l-28.3,8.61a1,1,0,0,0-.65,1.21,1,1,0,0,0,.93.69.9.9,0,0,0,.28,0L109.53,40l2.61,7.71A1,1,0,1,0,114,47.1L112.92,44h4.57a1.24,1.24,0,0,1,1.24,1.24v3.24A1,1,0,0,0,119.7,49.42Z"/><path class="cls-4" d="M127.46,64a1,1,0,0,0,0,2c.69,0,1,.29,1,1V78.59c0,.68-.29,1-1,1H111.91c-.69,0-1-.29-1-1V68.86c0-.68.29-1,1-1h11.66a1,1,0,0,0,1-1V55.25a2.74,2.74,0,0,0-2.92-2.92H62.32a3.61,3.61,0,0,1-3.89-3.89,3.61,3.61,0,0,1,3.89-3.89h9.87l-5.89,2a1,1,0,0,0-.62,1.22,1,1,0,0,0,.93.67,1,1,0,0,0,.3,0l35.24-11.62a1,1,0,1,0-.61-1.84L78,42.64a.7.7,0,0,0-.14,0H62.32a5.52,5.52,0,0,0-5.84,5.83V91.23a5.52,5.52,0,0,0,5.84,5.83h59.31a2.74,2.74,0,0,0,2.92-2.92V84.42a1,1,0,0,0-2,0v9.72c0,.69-.29,1-1,1H62.32a3.61,3.61,0,0,1-3.89-3.89V52.94a5.89,5.89,0,0,0,3.89,1.34h59.31c.68,0,1,.29,1,1V66H111.91A2.73,2.73,0,0,0,109,68.86v9.73a2.73,2.73,0,0,0,2.92,2.91h15.55a2.73,2.73,0,0,0,2.92-2.91V66.92A2.74,2.74,0,0,0,127.46,64Z"/><circle class="cls-5" cx="118.71" cy="73.72" r="1.94"/><path class="cls-6" d="M36.4,21.12c-.33-5.07-3.86-10-10.34-10a11.85,11.85,0,0,0-2.32.23.38.38,0,1,0,.16.75,10.91,10.91,0,0,1,2.16-.21c6.6,0,9.6,5.18,9.6,10v1.15a.39.39,0,0,0,.77,0V21.89c2.35.21,5.38,2.25,5.38,6.54A6.27,6.27,0,0,1,35.66,35H17.23a6.13,6.13,0,0,1-6.15-6.53c0-3.14,1.93-6.52,6.15-6.52h1.15a.39.39,0,0,0,.38-.39.38.38,0,0,0-.38-.38H17.23V19.6A4.29,4.29,0,0,1,21.84,15a4.58,4.58,0,0,1,4.61,4.64v10l-3.2-3a.38.38,0,0,0-.52.56L26.2,30.4a1,1,0,0,0,.63.34.89.89,0,0,0,.62-.34l3.48-3.22a.38.38,0,1,0-.52-.56l-3.2,3v-10a5.34,5.34,0,0,0-5.37-5.41,5.05,5.05,0,0,0-5.38,5.41v1.58c-4,.39-6.14,3.84-6.14,7.25s2.42,7.3,6.91,7.3H35.66a7,7,0,0,0,6.91-7.3C42.57,23.59,39.07,21.31,36.4,21.12Z"/><line class="cls-1" x1="25.72" y1="50.8" x2="25.72" y2="117.72"/><line class="cls-1" x1="93.15" y1="97.06" x2="93.15" y2="117.72"/><line class="cls-1" x1="93.15" y1="117.21" x2="25.44" y2="117.21"/><line class="cls-1" x1="93.15" y1="29.19" x2="50.8" y2="29.19"/></g></g></svg>